<?xml version="1.0" encoding="UTF-8" standalone="no"?>
<!-- Created with Inkscape (http://www.inkscape.org/) -->

<svg
   width="100"
   height="100"
   id="svg4209"
   version="1.1"
   inkscape:version="1.3.2 (091e20ef0f, 2023-11-25, custom)"
   sodipodi:docname="icon.svg"
   inkscape:export-filename="icon.png"
   inkscape:export-xdpi="491.51999"
   inkscape:export-ydpi="491.51999"
   xmlns:inkscape="http://www.inkscape.org/namespaces/inkscape"
   xmlns:sodipodi="http://sodipodi.sourceforge.net/DTD/sodipodi-0.dtd"
   xmlns:xlink="http://www.w3.org/1999/xlink"
   xmlns="http://www.w3.org/2000/svg"
   xmlns:svg="http://www.w3.org/2000/svg"
   xmlns:rdf="http://www.w3.org/1999/02/22-rdf-syntax-ns#"
   xmlns:cc="http://creativecommons.org/ns#"
   xmlns:dc="http://purl.org/dc/elements/1.1/">
  <defs
     id="defs4211">
    <linearGradient
       id="linearGradient18"
       inkscape:collect="always">
      <stop
         style="stop-color:#008200;stop-opacity:1;"
         offset="0"
         id="stop18" />
      <stop
         style="stop-color:#229622;stop-opacity:1;"
         offset="1"
         id="stop19" />
    </linearGradient>
    <linearGradient
       id="linearGradient15"
       inkscape:collect="always">
      <stop
         style="stop-color:#45b345;stop-opacity:1;"
         offset="0"
         id="stop16" />
      <stop
         style="stop-color:#64cf64;stop-opacity:1;"
         offset="1"
         id="stop17" />
    </linearGradient>
    <inkscape:path-effect
       effect="envelope"
       id="path-effect14"
       is_visible="true"
       lpeversion="1"
       yy="true"
       xx="true"
       bendpath1="m 116.09618,788.93048 66.88031,14.5261"
       bendpath2="M 191.63306,802.78115 162.87321,930.32073"
       bendpath3="m 174.61442,942.42328 34.7766,-98.55108"
       bendpath4="M 106.3146,777.33269 70.474601,888.99294"
       bendpath1-nodetypes="cc"
       bendpath3-nodetypes="cc"
       bendpath4-nodetypes="cc"
       bendpath2-nodetypes="cc" />
    <inkscape:path-effect
       effect="transform_2pts"
       start="100.07,858.75069"
       end="192.49087,860.04987"
       id="path-effect13"
       is_visible="true"
       lpeversion="1"
       first_knot="1"
       last_knot="2"
       helper_size="3"
       stretch="0.98"
       offset="0"
       elastic="false"
       from_original_width="true"
       flip_vertical="false"
       flip_horizontal="false"
       lock_length="true"
       lock_angle="false" />
    <inkscape:path-effect
       effect="lattice2"
       gridpoint0="102.02372,791.91724"
       gridpoint1="191.90414,791.91724"
       gridpoint2="102.02372,937.42387"
       gridpoint3="191.90414,937.42387"
       gridpoint4="124.49382,791.91724"
       gridpoint5="169.43403,791.91724"
       gridpoint6="124.49382,937.42387"
       gridpoint7="169.43403,937.42387"
       gridpoint8x9="146.96393,791.91724"
       gridpoint10x11="146.96393,937.42387"
       gridpoint12="102.02372,828.2939"
       gridpoint13="191.90414,828.2939"
       gridpoint14="102.02372,901.04721"
       gridpoint15="191.90414,901.04721"
       gridpoint16="124.49382,828.2939"
       gridpoint17="169.43403,828.2939"
       gridpoint18="124.49382,901.04721"
       gridpoint19="169.43403,901.04721"
       gridpoint20x21="146.96393,828.2939"
       gridpoint22x23="146.96393,901.04721"
       gridpoint24x26="102.02372,864.67055"
       gridpoint25x27="191.90414,864.67055"
       gridpoint28x30="124.49382,864.67055"
       gridpoint29x31="169.43403,864.67055"
       gridpoint32x33x34x35="146.96393,864.67055"
       id="path-effect12"
       is_visible="true"
       lpeversion="1"
       horizontal_mirror="false"
       vertical_mirror="false"
       perimetral="false"
       live_update="true" />
    <inkscape:path-effect
       effect="lattice2"
       gridpoint0="100.2713,780.07752"
       gridpoint1="191.90414,780.07752"
       gridpoint2="100.2713,937.42387"
       gridpoint3="191.90414,937.42387"
       gridpoint4="123.17951,780.07752"
       gridpoint5="168.99593,780.07752"
       gridpoint6="123.17951,937.42387"
       gridpoint7="168.99593,937.42387"
       gridpoint8x9="146.08772,780.07752"
       gridpoint10x11="146.08772,937.42387"
       gridpoint12="100.2713,819.41411"
       gridpoint13="191.90414,819.41411"
       gridpoint14="100.2713,898.08728"
       gridpoint15="191.90414,898.08728"
       gridpoint16="123.17951,819.41411"
       gridpoint17="168.99593,819.41411"
       gridpoint18="123.17951,898.08728"
       gridpoint19="168.99593,898.08728"
       gridpoint20x21="146.08772,819.41411"
       gridpoint22x23="146.08772,898.08728"
       gridpoint24x26="100.2713,858.75069"
       gridpoint25x27="191.90414,858.75069"
       gridpoint28x30="123.17951,858.75069"
       gridpoint29x31="168.99593,858.75069"
       gridpoint32x33x34x35="146.08772,858.75069"
       id="path-effect11"
       is_visible="true"
       lpeversion="1"
       horizontal_mirror="false"
       vertical_mirror="false"
       perimetral="false"
       live_update="true" />
    <inkscape:path-effect
       effect="skeletal"
       id="path-effect10"
       is_visible="true"
       lpeversion="1"
       pattern="M 0,0 H 1"
       copytype="single_stretched"
       prop_scale="1"
       scale_y_rel="false"
       spacing="0.1"
       normal_offset="0"
       tang_offset="0"
       prop_units="false"
       vertical_pattern="false"
       hide_knot="false"
       fuse_tolerance="0" />
    <inkscape:path-effect
       effect="skeletal"
       id="path-effect9"
       is_visible="true"
       lpeversion="1"
       pattern="M 0,0 H 1"
       copytype="single_stretched"
       prop_scale="1"
       scale_y_rel="false"
       spacing="0"
       normal_offset="0"
       tang_offset="0"
       prop_units="false"
       vertical_pattern="false"
       hide_knot="false"
       fuse_tolerance="0" />
    <linearGradient
       inkscape:collect="always"
       xlink:href="#linearGradient15"
       id="linearGradient17"
       x1="146.39116"
       y1="808.25763"
       x2="161.62164"
       y2="808.25763"
       gradientUnits="userSpaceOnUse"
       gradientTransform="matrix(0.76488638,0,0,0.89056175,19.670926,141.55381)" />
    <linearGradient
       inkscape:collect="always"
       xlink:href="#linearGradient18"
       id="linearGradient19"
       x1="95.364365"
       y1="849.28809"
       x2="214.29953"
       y2="849.28809"
       gradientUnits="userSpaceOnUse"
       gradientTransform="matrix(0.76488638,0,0,0.89056175,19.670926,141.55381)" />
  </defs>
  <sodipodi:namedview
     id="base"
     pagecolor="#ffffff"
     bordercolor="#666666"
     borderopacity="1.0"
     inkscape:pageopacity="0.0"
     inkscape:pageshadow="2"
     inkscape:zoom="3.2049683"
     inkscape:cx="11.544576"
     inkscape:cy="103.43316"
     inkscape:document-units="px"
     inkscape:current-layer="layer1"
     showgrid="false"
     inkscape:window-width="2021"
     inkscape:window-height="1547"
     inkscape:window-x="610"
     inkscape:window-y="399"
     inkscape:window-maximized="0"
     inkscape:showpageshadow="0"
     inkscape:pagecheckerboard="0"
     inkscape:deskcolor="#d1d1d1" />
  <metadata
     id="metadata4214">
    <rdf:RDF>
      <cc:Work
         rdf:about="">
        <dc:format>image/svg+xml</dc:format>
        <dc:type
           rdf:resource="http://purl.org/dc/dcmitype/StillImage" />
      </cc:Work>
    </rdf:RDF>
  </metadata>
  <g
     inkscape:label="Capa 1"
     inkscape:groupmode="layer"
     id="layer1"
     transform="translate(-95.362058,-856.11663)">
    <g
       id="g19"
       transform="translate(14.465113,4.8930683)">
      <path
         inkscape:connector-curvature="0"
         id="path4032"
         d="m 109.45301,866.5172 c 0.38073,0.018 0.76332,0.0283 1.14765,0.0316 0.26249,-0.16742 0.52757,-0.33765 0.79529,-0.51061 -0.0324,0.0282 0.67861,-0.59059 0.6462,-0.56236 0.20758,-0.29327 0.41872,-0.58892 0.63352,-0.887 0.16868,-0.34418 0.34108,-0.69095 0.51733,-1.04041 0.17833,-0.45032 0.36219,-0.90487 0.55178,-1.36379 0.32371,-0.71851 0.6623,-1.44809 1.01663,-2.18935 0.14995,-0.33129 0.30287,-0.66493 0.45895,-1.00094 0.33833,-0.50106 0.68595,-1.00845 1.04327,-1.5224 0.33816,-0.31782 0.68184,-0.63948 1.03117,-0.96496 0.27912,-0.0827 0.55957,-0.16713 0.84133,-0.2533 0.31779,-0.0435 0.63665,-0.0893 0.95645,-0.13705 0.28774,0.0302 0.57557,0.0585 0.86342,0.0851 0.22554,0.16064 0.4503,0.31917 0.67436,0.47563 0.10021,0.28324 0.20041,0.5638 0.30082,0.8418 0.0134,0.37455 0.0285,0.74534 0.0454,1.11239 0.0673,0.30063 0.13542,0.59834 0.20449,0.89323 0.13529,0.32471 0.27124,0.64531 0.40821,0.96196 0.31667,0.094 0.63339,0.18564 0.95012,0.27511 0.31748,-0.0589 0.63611,-0.11885 0.95559,-0.17975 0.28897,-0.13292 1.04493,-0.48086 1.33391,-0.61378 0.72349,-0.4613 1.46041,-0.92808 2.21204,-1.40026 0.52059,-0.34383 1.04838,-0.6903 1.58367,-1.03929 0.53041,-0.2826 1.06618,-0.56667 1.60795,-0.85222 0.42364,-0.14861 0.84899,-0.29733 1.27693,-0.44628 0.1912,0.0194 0.90996,0.0933 1.10112,0.11299 0.21147,0.18352 0.42329,0.36573 0.63563,0.54669 0.20646,0.54878 0.42035,1.08682 0.64373,1.61495 0.17351,0.26646 0.34933,0.53023 0.52783,0.79151 0.22999,0.17391 0.46123,0.34672 0.69397,0.51852 0.004,10e-4 0.60361,0.22677 0.60701,0.22806 0.47533,-0.072 0.95161,-0.1424 1.42969,-0.21118 0.50714,-0.0577 1.01516,-0.11339 1.52504,-0.16693 0.57445,0.0344 1.14955,0.0714 1.7275,0.11138 0.28503,0.15378 0.57203,0.30739 0.8611,0.46088 0.14611,0.3225 0.29871,0.64157 0.45826,0.95752 0.10281,0.39308 0.21575,0.78106 0.33934,1.16446 -0.0713,0.46425 -0.12949,0.92171 -0.17312,1.37322 -0.15908,0.68171 -0.28813,1.34986 -0.38762,2.00629 -0.13434,0.56201 -0.24791,1.11557 -0.34106,1.66177 -0.16775,0.58873 -0.31299,1.16914 -0.43678,1.74233 -0.20365,-0.11371 -0.40501,-0.2273 -0.60416,-0.34083 -0.70155,-0.21474 -1.39065,-0.42654 -2.06405,-0.63497 -8.95699,-1.6598 -28.16684,15.36561 -28.59998,-1.64973 z"
         style="fill:#08a008;fill-opacity:1;stroke:none;stroke-width:0.278832;stroke-linecap:round;stroke-linejoin:round;stroke-miterlimit:4;stroke-dasharray:none;stroke-opacity:1"
         sodipodi:nodetypes="sccccccccccccccccccccccccccccccccccccccccccccs" />
      <path
         id="path1"
         style="fill:url(#linearGradient17);stroke:none;stroke-width:1px;stroke-linecap:butt;stroke-linejoin:miter;stroke-opacity:1"
         d="m 141.28983,860.8242 c -0.38714,0.0199 -0.77033,0.0411 -1.15234,0.0625 -0.43973,0.0621 -0.87644,0.12515 -1.31055,0.18945 -0.57575,0.17515 -1.14754,0.35212 -1.71484,0.53125 -0.45286,0.15911 -0.90215,0.31937 -1.34961,0.48047 -0.25701,0.211 -0.51199,0.42229 -0.76563,0.63281 -0.24154,0.32067 -0.48038,0.63975 -0.71484,0.95704 -0.13695,0.27938 -0.27095,0.55611 -0.40234,0.83203 -0.0867,0.32429 -0.16943,0.64624 -0.24805,0.96484 -0.13536,0.63857 -0.25372,1.2643 -0.35742,1.88086 -0.45795,-0.31677 -0.90189,-0.63967 -1.33203,-0.97266 -0.34979,-0.31353 -0.68913,-0.63464 -1.01954,-0.96289 -0.38133,-0.40788 -0.74936,-0.82617 -1.10546,-1.25781 -0.41888,-0.39059 -0.82458,-0.79353 -1.22266,-1.20898 -0.27215,-0.23374 -0.54072,-0.47148 -0.80664,-0.71485 -0.43712,-0.20095 -0.87159,-0.40815 -1.30274,-0.62304 -0.37218,-0.0299 -0.74284,-0.0639 -1.11328,-0.0996 -0.44991,0.21412 -0.89787,0.42512 -1.34179,0.63281 -0.49491,0.36499 -0.7846,0.53488 -1.29297,1.03906 -0.35156,0.53078 -0.69421,1.05335 -1.02735,1.57031 -0.46162,0.85953 -0.90103,1.70206 -1.31836,2.52735 -0.37128,0.65853 -0.72738,1.30741 -1.07226,1.94531 -0.38565,0.5511 -0.76112,1.09278 -1.12695,1.62695 -0.25648,0.0754 -0.5127,0.14881 -0.76758,0.21875 -0.26914,-0.13098 -0.53823,-0.2675 -0.80664,-0.4082 -0.263,-0.33899 -0.52467,-0.68542 -0.78516,-1.04102 -0.30029,-0.63701 -0.59465,-1.29194 -0.88672,-1.96484 -0.24122,-0.89951 -0.47303,-1.82306 -0.69726,-2.77148 -0.0443,-0.23505 -0.0876,-0.47508 -0.13086,-0.71289 -6.1e-4,1.3e-4 -10e-4,-1.4e-4 -0.002,0 1.1e-4,-0.007 -9e-5,-0.0111 0,-0.0176 -0.0426,-0.23461 -0.0873,-0.4658 -0.1289,-0.70313 0.0344,-0.003 0.0691,-0.008 0.10351,-0.0117 -0.14466,-2.56462 -1.32502,-2.94728 -3.46093,-1.88086 0,0 -2.1419,1.93504 -5.01368,3.33399 -2.94076,1.43258 -6.323315,2.05917 -10.253902,-0.47461 10.365862,14.23972 18.082692,15.53808 28.580082,14.16016 5.10758,-0.67046 10.77054,-1.83935 16.70898,-2.85157 5.55933,-0.94761 12.4695,-2.00846 17.12695,-3.27343 -0.50528,-0.81549 -0.97153,-1.62438 -1.39648,-2.43165 -3.36853,-2.31495 -5.9541,-4.48503 -7.89844,-6.8496 0.64904,0.18422 -1.13208,-1.75234 -3.18164,-1.74024 -0.21821,-0.0824 -0.43471,-0.16517 -0.64844,-0.24805 -0.72556,-0.10883 -1.43797,-0.21749 -2.13476,-0.32421 -0.41302,-0.0145 -0.82258,-0.0279 -1.22852,-0.041 z m -45.927732,3.59961 c 0,0 -4e-5,10e-6 0,0 z"
         sodipodi:nodetypes="cccccccccccccccccccccccccccccccccccccscccccccccc" />
      <path
         inkscape:connector-curvature="0"
         id="path3262"
         d="m 157.05514,868.47584 c 0.0179,-0.42811 0.0428,-0.85727 0.0754,-1.28767 -0.12017,-0.29398 -0.23443,-0.58833 -0.34264,-0.88328 -0.20334,-0.3183 -0.39766,-0.63705 -0.58284,-0.95668 -0.21024,-0.1794 -0.41593,-0.35882 -0.61712,-0.53844 -0.24049,-0.15778 -0.47642,-0.31552 -0.70791,-0.47338 -0.44752,-0.12903 -0.88691,-0.25706 -1.31868,-0.38434 -1.10978,-0.13464 -2.1819,-0.26114 -3.22694,-0.3815 -0.63039,-0.13251 -1.24681,-0.26324 -1.85018,-0.39267 -0.15321,-0.0984 -0.30451,-0.19711 -0.45395,-0.29607 0.12243,0.25003 0.25066,0.49819 0.3847,0.74468 0.0469,0.25185 0.0983,0.5021 0.15407,0.75087 0.0407,0.3557 0.0895,0.70851 0.1464,1.05877 -0.0756,0.35222 -0.14562,0.70228 -0.21022,1.05033 -0.14196,0.35497 -0.27935,0.70821 -0.41242,1.05977 -0.21562,0.24226 -0.42979,0.48421 -0.64251,0.72584 -0.10869,0.19748 -0.21625,0.39455 -0.32272,0.5912 0.0145,0.24266 0.032,0.48442 0.0523,0.72535 0.27752,0.19409 0.5611,0.38819 0.85095,0.58262 0.40046,0.18923 0.80969,0.3794 1.22827,0.57111 -0.14537,-0.0342 1.77147,0.41783 1.62611,0.38362 1.03773,-0.0291 2.09785,-0.0482 3.1842,-0.0566 0.48589,-0.16514 0.97414,-0.32875 1.46506,-0.49105 0.28171,-0.18361 0.56393,-0.36702 0.84672,-0.5503 0.12972,-0.22446 0.26029,-0.44922 0.39173,-0.67423 0.0919,-0.29216 0.18596,-0.58484 0.2823,-0.878 z"
         style="fill:#1aad1a;fill-opacity:1;stroke:none;stroke-width:0.278832;stroke-linecap:round;stroke-linejoin:round;stroke-miterlimit:4;stroke-dasharray:none;stroke-opacity:1" />
      <path
         sodipodi:nodetypes="ccccccccccccccccccccccccc"
         inkscape:connector-curvature="0"
         id="path3283"
         d="m 105.2576,869.5081 c 0.22073,-0.73581 0.45388,-1.48493 0.70094,-2.24803 0.27422,-0.53791 0.39834,-0.9349 0.85207,-1.6532 0.70609,-0.76365 0.74279,-0.89007 1.44267,-1.44176 0.36593,-0.3717 0.81825,-0.83782 1.19966,-1.23626 0.21892,-0.26047 0.95502,-0.71447 1.17739,-1.36478 -0.006,-0.86968 -0.31392,-1.25742 -0.59525,-1.72383 -0.45448,-0.58812 -0.91524,-1.19389 -1.38422,-1.81815 -0.69536,-0.38459 -1.38876,-1.07096 -2.02753,-1.04449 -1.39885,-0.21313 -1.21175,0.15373 -1.67897,0.34789 -0.61007,0.58217 -1.19752,1.1196 -1.76675,1.61376 -0.33587,0.16856 -0.66774,0.32356 -0.99612,0.46483 -0.34423,-0.10994 -0.68873,-0.23247 -1.03368,-0.36819 -0.40743,-0.29236 -0.81741,-0.60197 -1.230153,-0.92976 -0.14106,0.1088 -0.379345,0.0703 -0.134543,0.49534 0.165177,0.60197 0.498896,1.82019 0.664076,2.42215 0.33418,1.18421 0.54889,2.2924 0.36643,3.17963 -0.10948,0.3598 -0.21618,0.71652 -0.32029,1.07019 -0.29691,0.57178 -0.789696,0.64714 -1.25135,0.77931 -0.254379,-0.0693 -0.509178,-0.14777 -0.764596,-0.23578 0.5119,0.53077 1.017719,1.0265 1.51807,1.48938 0.589566,0.57314 1.171456,1.10103 1.746606,1.58703 0.53802,0.33958 1.07149,0.64222 1.60123,0.91074 0.39264,0.1306 0.78398,0.24234 1.17439,0.33636 0.24427,-0.20288 0.49079,-0.41366 0.73992,-0.63238 z"
         style="fill:#009b00;fill-opacity:1;stroke:none;stroke-width:0.278832;stroke-linecap:round;stroke-linejoin:round;stroke-miterlimit:4;stroke-dasharray:none;stroke-opacity:1" />
      <path
         sodipodi:nodetypes="ccccccccccccccccccccczzzccccccaacccaaaaaaaacaaaaaaascccccccccccccccccccccccccccccccccccccccccccccccccscccccccccccccccccccccccccccccccccccccccccccc"
         inkscape:connector-curvature="0"
         id="path3265"
         d="m 111.85141,864.02163 c -0.5725,0.56956 -1.12867,1.11321 -1.67061,1.63056 4.97217,-6.92743 -6.29089,8.76408 -1.31871,1.83665 -0.27767,0.57988 -0.54522,1.1484 -0.8034,1.70566 -0.2308,0.47092 -0.45501,0.93393 -0.673,1.38897 -0.18245,0.40439 -0.36037,0.80342 -0.534,1.19704 -0.22609,0.15164 -0.45075,0.29756 -0.67416,0.43764 -0.27905,0.11937 -0.55686,0.22989 -0.8337,0.33126 -0.25576,-0.0519 -0.51192,-0.11135 -0.7686,-0.17868 -0.49016,-0.0644 -0.98148,-0.15767 -1.47487,-0.28215 -0.42558,-0.29461 -0.85439,-0.6122 -1.28689,-0.95429 -0.62246,-0.48367 -1.25267,-1.01826 -1.892011,-1.60841 -0.665497,-0.6699 -1.341596,-1.39993 -2.029825,-2.1953 -0.477901,-0.52599 -0.961638,-1.0838 -1.451754,-1.67528 -0.35591,-0.39213 -0.715099,-0.8023 -1.077818,-1.23125 0.575572,1.20965 1.140844,2.37867 1.697758,3.50869 0.552386,1.0551 1.095899,2.07008 1.631969,3.04639 0.609408,1.07546 1.20872,2.10007 1.799811,3.07614 0.84901,1.42946 1.68034,2.75736 2.49985,3.99095 0.74942,0.98003 1.48749,1.88131 2.2178,2.71037 0.2609,0.4475 0.52134,0.88498 0.78164,1.31274 -0.16914,1.81965 -0.0737,2.8644 1.1681,4.25937 0.31381,0.26533 0.77725,1.16408 1.07535,1.39342 0.29809,0.22935 0.39433,0.47049 0.57617,0.72264 0.88923,1.23304 0.84453,1.51973 0.24876,2.88134 -0.202,0.86251 0.5122,1.39289 1.05162,2.06231 -0.0837,1.66426 -0.002,3.24938 -0.018,4.91146 0.15782,6.81287 0.0136,9.31312 0.28097,17.47368 0.21568,3.0123 0.67961,6.10679 1.55115,9.16057 0.48576,1.82559 1.12178,3.66047 1.95146,5.47917 0.99153,1.96055 1.95634,3.98661 3.29693,5.7602 1.10371,1.46018 2.44901,2.75315 3.85608,3.95023 1.80196,1.53304 3.3591,2.76195 5.82707,4.0999 1.74384,0.74026 4.22368,1.66094 6.23239,2.24061 1.71071,0.29897 3.49248,0.25896 5.34162,0.3957 1.14207,-0.0346 2.46318,0.0253 3.69482,0.0273 1.03073,0.002 2.06349,0.0493 3.09217,-0.0129 1.48338,-0.0898 2.95935,-0.28792 4.42599,-0.51899 1.98659,-0.31298 4.01398,-0.53652 5.91437,-1.17332 0.75529,-0.2531 1.48242,-0.60435 2.14156,-1.03897 0.94707,-0.62448 1.80504,-1.38506 2.5544,-2.22043 0.73738,-0.82202 1.42049,-1.71745 1.87674,-2.70928 0.56548,-1.22931 0.97637,-2.5677 1.01744,-3.91052 0.0373,-1.2204 -0.7059,-3.59978 -0.7059,-3.59978 v 0 c 0,0 -0.86765,-1.26029 -1.40462,-1.80768 -0.75508,-0.76975 -1.53712,-1.57852 -2.52569,-2.04632 -1.1665,-0.55199 -2.52486,-0.62317 -3.81275,-0.79986 -1.45787,-0.20001 -2.93499,-0.29148 -4.40773,-0.29138 -0.98359,6e-5 -1.96124,0.1506 -2.94374,0.19499 -1.05869,0.0478 -2.11978,0.12229 -3.17857,0.0768 -0.86528,-0.0372 -1.72454,-0.16373 -2.58131,-0.28544 -1.77108,-0.25159 -3.24954,-0.51809 -4.22513,-1.14905 -0.9485,-0.59383 -1.67937,-0.87274 -2.35012,-1.72754 -0.54387,-0.69005 -1.34796,-1.29789 -1.75138,-2.12328 -0.36021,-0.80095 -0.75525,-1.35669 -1.00698,-2.25956 -0.31195,-1.26251 -0.52879,-2.62113 -0.67977,-4.03393 -0.12602,-2.59598 -0.0138,-5.50254 0.18886,-8.40548 -0.0335,-2.44642 -0.0103,-5.13658 0.0449,-7.6854 0.10987,-1.47423 0.23553,-2.99827 0.37252,-4.49609 0.0594,-1.15483 0.1282,-2.32895 0.20804,-3.49725 0.1579,-0.0301 0.31658,-0.0598 0.47608,-0.0893 0.15943,0.12159 0.31998,0.24355 0.48174,0.36602 0.31248,0.0734 0.62853,0.14852 0.9481,0.22547 0.22001,0.0322 0.44169,0.0651 0.66505,0.099 0.0979,-0.0692 0.19613,-0.13828 0.29463,-0.2073 0.4526,-0.40273 0.91126,-0.80429 1.37611,-1.20491 0.55858,-0.39955 1.12557,-0.79661 1.70142,-1.19154 0.31901,-0.26103 0.64057,-0.52153 0.96473,-0.78159 -2.6e-4,5e-4 0.251,-0.48705 0.25075,-0.48655 0.0182,-0.16452 0.0366,-0.32915 0.0551,-0.49385 -1.4e-4,2.6e-4 0.18771,-0.3487 0.18757,-0.34843 0.31816,-0.33252 0.63869,-0.66503 0.96151,-0.99756 0.64201,-0.34416 1.29306,-0.68471 1.95383,-1.02206 0.68838,-0.2758 1.38686,-0.54687 2.09632,-0.81351 0.81098,-0.21104 1.63608,-0.41468 2.47671,-0.61099 0.98756,-0.17108 1.99573,-0.3307 3.02685,-0.47884 0.8604,-0.21701 1.73392,-0.42718 2.62184,-0.63101 0.66359,-0.19432 1.33393,-0.38538 2.01154,-0.57356 0.48857,-0.16303 0.98031,-0.32467 1.47542,-0.48514 0.28211,-0.13968 0.56496,-0.27917 0.8486,-0.41852 0.008,-0.004 0.71695,-0.43219 0.72462,-0.43682 -0.38479,-0.0574 -0.76611,-0.11276 -1.14407,-0.16621 -0.73123,-0.18077 -1.44826,-0.35313 -2.15152,-0.51774 -0.5792,-0.18729 -1.14831,-0.36881 -1.70733,-0.54494 0.071,0.0395 -1.07722,-0.60138 -1.00624,-0.5618 -0.13761,-0.17778 -0.27364,-0.35494 -0.40807,-0.53155 -0.009,-0.27752 -0.016,-0.55506 -0.0219,-0.83258 0.32766,-0.37188 0.65678,-0.74447 0.98699,-1.11735 0.66856,-0.49217 1.34078,-0.9834 2.0172,-1.47479 0.56458,-0.36253 1.13129,-0.72419 1.70067,-1.08568 0.008,-0.007 0.70881,-0.60871 0.71674,-0.61553 0.003,-0.004 0.52787,-0.51781 0.5312,-0.52108 -7.7e-4,8.9e-4 0.27815,-0.35785 0.27721,-0.35663 -0.32133,0.0668 -0.64131,0.13427 -0.96002,0.20239 -0.50976,0.047 -1.01504,0.096 -1.51614,0.14715 -0.61345,0.0395 -1.2197,0.0823 -1.81935,0.12825 -0.56919,-0.0281 -1.13055,-0.0527 -1.68456,-0.0744 -0.46538,-0.014 -0.92549,-0.0258 -1.38061,-0.0355 -0.61843,-0.0734 -1.22578,-0.14262 -1.8227,-0.2081 -0.1117,-0.0288 -1.07605,-0.27669 -1.18775,-0.30546 -0.44564,-0.10434 -1.42982,-0.73836 -1.95057,-1.07184 -0.31465,-0.20149 -0.46429,-0.56755 -0.68491,-0.85272 -0.0315,-0.35424 -0.0571,-0.71045 -0.0763,-1.06889 0.10972,-0.33847 0.22336,-0.67863 0.34114,-1.0205 0.30721,-0.5455 0.62347,-1.09473 0.94944,-1.6476 0.21695,-0.34125 0.43756,-0.68389 0.66198,-1.02793 -0.0184,-0.25161 -0.033,-0.50464 -0.0438,-0.75921 -0.14865,-0.23767 -0.2917,-0.47688 -0.42921,-0.71785 -0.47216,-0.22668 -0.93054,-0.45437 -1.37632,-0.6839 -0.47141,-0.11448 -0.93426,-0.22869 -1.38924,-0.34298 -0.10801,-0.009 -1.71591,-0.14804 -1.82391,-0.15746 -0.50067,-0.0125 -0.99457,-0.0238 -1.48394,-0.0343 -0.43336,0.0558 -0.86312,0.11263 -1.29012,0.17056 -0.41154,0.15211 -0.82046,0.30527 -1.22725,0.45955 -0.37898,0.37295 -0.75313,0.7448 -1.12256,1.11553 -0.28953,0.58871 -0.56637,1.17018 -0.83135,1.74475 -0.14881,0.47745 -0.28879,0.94946 -0.42045,1.41629 -0.24221,0.37707 -0.47986,0.75204 -0.7131,1.12491 -0.26945,0.091 -0.53745,0.18226 -0.80422,0.27381 -0.36853,-0.0516 -0.73262,-0.10397 -1.09256,-0.15725 -0.48122,-0.22767 -0.95009,-0.46024 -1.40839,-0.69898 -0.44095,-0.25265 -0.87094,-0.51143 -1.29161,-0.77749 -0.48287,-0.36028 -0.95077,-0.73175 -1.40647,-1.11631 -0.42191,-0.3345 -0.83365,-0.67908 -1.23727,-1.03499 -0.31242,-0.16579 -0.62188,-0.33557 -0.92893,-0.50966 -0.23883,-0.0815 -0.47665,-0.16483 -0.71358,-0.25009 -0.21419,-0.0142 -0.42789,-0.0294 -0.64112,-0.0456 -0.36688,0.0793 -0.73252,0.1564 -1.09658,0.23086 -0.0471,0.0412 -0.97358,0.85338 -1.02072,0.89463 -0.29217,0.5237 -0.57564,1.04112 -0.85084,1.55236 -0.35219,0.64582 -0.69136,1.2822 -1.01832,1.90934 -0.24383,0.46664 -0.48102,0.92841 -0.71188,1.38537 -0.24968,0.36021 -0.49512,0.71716 -0.73647,1.07079 -0.062,0.0655 -0.74458,0.78567 -0.80664,0.85109 -0.30254,0.19749 -0.60304,0.39171 -0.90138,0.58221 -0.27822,0.0289 -0.5557,0.0542 -0.83245,0.0759 -0.33969,-0.0852 -0.67857,-0.1772 -1.0169,-0.27645 -0.28807,-0.22275 -0.57534,-0.45259 -0.86222,-0.68985 -0.29805,-0.4756 -0.59334,-0.96387 -0.88696,-1.46543 -0.30483,-0.60276 -0.60631,-1.2215 -0.90597,-1.85706 -0.17932,-0.58177 -0.35552,-1.17352 -0.52917,-1.77563 -0.12531,-0.44055 -0.24917,-0.88635 -0.37181,-1.33755 -0.14396,-0.42669 -0.28713,-0.85854 -0.4298,-1.29571 -0.0477,-0.15839 -0.0954,-0.31743 -0.14298,-0.47713 z"
         style="fill:url(#linearGradient19);fill-opacity:1;stroke:none;stroke-width:0.278832;stroke-linecap:round;stroke-linejoin:round;stroke-miterlimit:4;stroke-dasharray:none;stroke-opacity:1" />
      <path
         inkscape:connector-curvature="0"
         id="path4036"
         d="m 128.34879,884.56098 c 0.10338,-1.17722 0.23344,-2.37366 0.39726,-3.58707 0.16837,-1.0068 0.36006,-2.02924 0.57959,-3.06711 0.02,-0.26498 0.0419,-0.53128 0.066,-0.79892 -0.2304,0.36122 -0.45753,0.72113 -0.68147,1.07966 -0.20948,0.3959 -0.41525,0.79012 -0.61745,1.18255 -0.17506,0.37913 -0.34689,0.7567 -0.5156,1.1326 -0.15304,0.41233 -0.30243,0.82279 -0.44833,1.23122 -0.0822,0.33274 -0.16204,0.66416 -0.23967,0.9942 -0.0559,0.46219 -0.1072,0.92175 -0.15433,1.37855 -0.12183,0.86659 -0.22928,1.72613 -0.32438,2.57672 -0.1544,0.84204 -0.29768,1.67968 -0.43088,2.50984 l -0.23444,3.59878 c -0.071,0.57439 -0.13818,1.14774 -0.20168,1.71823 -0.0281,0.86133 -0.0482,1.72177 -0.0606,2.57427 -4.9e-4,0.51588 0.002,1.03107 0.007,1.54382 0.0155,0.93454 0.04,1.86922 0.0733,2.79304 0.0645,2.6881 0.20737,5.43936 0.46067,8.00085 -0.0135,1.13688 -5.2e-4,2.26423 0.0471,3.36677 0.0399,0.87624 0.10187,1.74196 0.19092,2.59012 0.12726,0.7204 0.27334,1.42936 0.44141,2.12225 0.0694,0.38404 0.14602,0.76398 0.23036,1.13912 0.44539,1.66156 1.0425,3.23567 1.85398,4.65649 0.80446,1.22796 1.77277,2.34004 2.95407,3.28514 0.65608,0.5373 1.38256,1.02367 2.18975,1.44951 0.45274,0.21969 0.92822,0.42121 1.42808,0.60291 2.71611,1.0589 6.23348,1.5281 10.89521,1.10762 0.54375,-0.0551 1.10283,-0.12252 1.67783,-0.20268 0.67844,-0.0422 1.3848,-0.0999 2.12039,-0.17382 0.39823,-0.0187 0.8061,-0.0412 1.22385,-0.0677 0.38757,-0.0533 0.78242,-0.11111 1.18471,-0.17343 -0.30771,-0.12686 -0.60732,-0.24494 -0.89852,-0.35416 -0.34173,-0.0711 -0.67324,-0.13719 -0.99449,-0.19841 -0.029,-0.002 -0.69852,-0.0441 -0.7275,-0.046 -0.27474,-0.009 -0.54298,-0.0179 -0.80482,-0.0272 -0.61551,0.0341 -1.20235,0.0583 -1.76169,0.0729 -0.95969,0.0672 -1.8497,0.0983 -2.6751,0.0955 -2.12836,0.0607 -3.88989,-0.12207 -5.35378,-0.50322 -1.06331,-0.24978 -1.99103,-0.6026 -2.80327,-1.04252 -1.02676,-0.52592 -1.89229,-1.18609 -2.6275,-1.95189 -0.78485,-0.79881 -1.43268,-1.71768 -1.97333,-2.72518 -0.36625,-0.67656 -0.68549,-1.39536 -0.96545,-2.14712 -0.36455,-0.92488 -0.67252,-1.90457 -0.93576,-2.92145 -0.10444,-0.34729 -0.20403,-0.69946 -0.29913,-1.05578 -0.12496,-0.91788 -0.21599,-1.86572 -0.28046,-2.83189 -0.076,-0.7755 -0.13581,-1.56694 -0.18256,-2.3675 -0.0613,-0.88166 -0.10745,-1.7806 -0.14134,-2.6865 -0.0672,-3.87299 0.0905,-8.49406 0.34991,-12.62924 0.1119,-1.32578 0.23968,-2.67783 0.38395,-4.02372 -0.01,-0.40933 -0.0175,-0.82004 -0.0233,-1.23153 -0.01,-0.49129 -0.0171,-0.98472 -0.0207,-1.47947 0.0127,-0.51865 0.029,-1.03985 0.0493,-1.56281 0.0538,-0.38561 0.10968,-0.77263 0.16782,-1.16072 -0.0106,-0.27957 -0.0197,-0.55994 -0.0273,-0.84107 -0.0301,-0.13926 -0.0597,-0.27873 -0.0888,-0.41844 -0.052,-0.0797 -0.10367,-0.15955 -0.15505,-0.23947 0.002,4.1e-4 -0.26273,-0.058 -0.26088,-0.0575 -0.13643,-0.0285 -0.27212,-0.0569 -0.4071,-0.0855 -0.005,2.4e-4 -0.22573,0.0117 -0.23034,0.0118 -0.1426,-0.0517 -0.28427,-0.10361 -0.42509,-0.1556 z"
         style="fill:#89d874;fill-opacity:1;stroke:none;stroke-width:0.278832;stroke-linecap:round;stroke-linejoin:round;stroke-miterlimit:4;stroke-dasharray:none;stroke-opacity:1"
         sodipodi:nodetypes="ccccccccccccccccccccccccccccccccccccccccccccccccccccccccccccc" />
      <path
         inkscape:connector-curvature="0"
         id="path4038"
         d="m 114.06257,878.03918 c 0.35918,0.4419 0.72121,0.86829 1.08729,1.2802 0.33833,0.30803 0.679,0.60488 1.02281,0.89133 0.22019,0.13949 0.44132,0.27516 0.66356,0.40719 0.27763,0.0746 0.5565,0.14459 0.83677,0.21015 0.20031,-0.0914 0.40141,-0.18442 0.60326,-0.27902 0.0778,-0.24209 0.15683,-0.48512 0.23728,-0.72908 -0.0129,-0.29538 -0.0237,-0.59258 -0.0324,-0.89167 l 0.15249,-0.22409 c 0.14824,0.45354 0.30205,0.90006 0.46144,1.33998 0.21318,0.65729 0.4384,1.30046 0.67554,1.93093 0.40143,1.15394 0.84135,2.26597 1.31825,3.34463 0.24842,0.63709 0.50886,1.26318 0.78078,1.87978 0.39125,0.78179 0.80217,1.54632 1.23213,2.29774 0.1184,0.49714 0.24202,0.99092 0.37032,1.48134 0.0959,0.4691 0.19585,0.93581 0.29944,1.39991 0.17278,1.33463 0.098,2.007 0.20129,2.72504 -0.004,0.46534 -0.005,0.92982 -0.005,1.39247 -0.0439,1.21927 -0.0715,2.44058 -0.0827,3.64341 -0.19666,2.35059 -0.33477,4.74012 -0.38032,7.0284 -0.0464,2.98006 0.0585,5.9801 0.45139,8.76085 0.39448,1.57533 0.8823,3.1035 1.49552,4.53794 1.1957,2.87788 2.92819,5.46451 5.57606,7.36816 1.3055,0.94228 2.84687,1.72763 4.68334,2.30332 2.20021,0.74765 4.8675,1.1985 8.13364,1.25106 1.66176,0.1115 3.50187,0.12801 5.54301,0.0365 1.43678,0.12186 2.99689,0.21292 4.68993,0.27142 0.65635,0.12743 1.33554,0.25692 2.0379,0.38857 0.51532,0.27967 1.04363,0.573 1.58422,0.87974 0.38879,0.48526 0.77863,0.99615 1.16713,1.53064 0.14878,0.42155 0.2922,0.85495 0.42931,1.29902 -0.21301,0.65766 -0.44801,1.32531 -0.70649,1.99874 -0.64557,0.56313 -1.30403,1.11535 -1.97544,1.65451 -1.39854,0.75984 -2.80353,1.46546 -4.21445,2.11268 -1.83912,0.46684 -3.63193,0.85085 -5.37974,1.15454 -2.34707,0.11729 -4.56254,0.11302 -6.65556,-6.2e-4 -2.04582,-0.38685 -3.93178,-0.85554 -5.67298,-1.39393 -1.3147,-0.50184 -2.53656,-1.03835 -3.6733,-1.60467 -1.70763,-0.83768 -3.22856,-1.7451 -4.58663,-2.70664 -0.6421,-0.50986 -1.24334,-1.0308 -1.80666,-1.56126 -1.62959,-1.44249 -2.97112,-2.97512 -4.08129,-4.56197 -1.13069,-1.86044 -1.9692,-3.78292 -2.58813,-5.72693 -0.69451,-2.16318 -1.12486,-4.3798 -1.372,-6.59466 -0.23256,-1.63152 -0.36721,-3.28334 -0.42925,-4.93026 -0.0793,-0.91383 -0.13634,-1.83231 -0.17466,-2.75036 -0.02,-0.40182 -0.0363,-0.80416 -0.0494,-1.20661 -0.0224,-0.37933 -0.0419,-0.7592 -0.0586,-1.13919 -0.045,-0.5411 -0.0844,-1.08367 -0.11865,-1.62647 0.12569,0.82088 0.26344,1.63969 0.41423,2.45205 0.0852,0.77912 0.18287,1.55703 0.2944,2.33012 0.18284,0.97561 0.38858,1.94638 0.62058,2.90491 0.18071,0.74706 0.37794,1.48901 0.5936,2.22244 0.54033,1.92616 1.21346,3.81642 2.06495,5.60876 0.67842,1.45007 1.47944,2.85014 2.43395,4.16625 0.93894,1.31063 2.03525,2.5475 3.32531,3.67535 0.51871,0.44488 1.06859,0.87277 1.65214,1.28128 0.8641,0.70436 1.81945,1.36821 2.87807,1.98268 0.63528,0.36874 1.30824,0.71999 2.02164,1.05175 1.11418,0.53004 2.33009,1.01354 3.65925,1.44264 1.32807,0.47524 2.77793,0.89942 4.36304,1.26457 0.33144,-0.0444 0.66494,-0.0926 1.00051,-0.14472 0.19012,-0.0883 0.37966,-0.17796 0.5686,-0.26878 0.076,-0.14362 0.15063,-0.28673 0.22389,-0.42924 -0.004,-0.009 -0.16301,-0.39882 -0.16676,-0.40804 -0.13888,-0.008 -0.27695,-0.0161 -0.41419,-0.025 -2.66411,-0.47959 -4.94933,-1.13978 -6.91811,-1.94193 -1.22193,-0.42762 -2.33644,-0.91398 -3.35507,-1.45023 -0.44081,-0.25384 -0.86217,-0.51691 -1.26509,-0.78848 -1.64984,-0.96572 -3.04143,-2.08126 -4.22448,-3.30305 -1.43733,-1.4183 -2.59876,-3.00312 -3.55038,-4.68642 -0.88342,-1.51357 -1.60448,-3.12462 -2.20089,-4.7853 -1.12948,-3.08738 -1.86669,-6.46248 -2.36459,-9.81548 -0.23752,-1.84476 -0.40949,-3.73341 -0.5279,-5.61077 -0.12417,-1.35318 -0.10817,-1.73673 0.0425,-4.04556 0.21748,-3.33118 0.12041,-3.90343 0.30557,-5.84669 0.027,-0.28319 0.0899,-0.5625 0.11722,-0.84567 0.0536,-0.55605 0.0564,-1.11331 0.0912,-1.67298 0.0368,-0.30864 0.075,-0.61804 0.11463,-0.92805 0.0189,-0.47952 0.0413,-0.96135 0.0675,-1.44509 -0.0652,-0.58733 -0.12435,-1.17965 -0.17688,-1.77672 -0.0974,-0.5148 -0.18957,-1.03449 -0.27619,-1.55914 -0.1872,-0.61145 -0.36611,-1.23224 -0.53642,-1.86304 -0.24948,-0.65565 -0.48895,-1.32465 -0.7185,-2.00819 -0.25379,-0.47579 -0.50218,-0.96161 -0.74563,-1.45819 -0.16663,-0.32756 -0.33104,-0.65982 -0.49339,-0.99698 -0.20569,-0.3771 -0.40868,-0.76096 -0.60931,-1.15189 z"
         style="fill:#40be40;fill-opacity:1;stroke:none;stroke-width:0.278832;stroke-linecap:round;stroke-linejoin:round;stroke-miterlimit:4;stroke-dasharray:none;stroke-opacity:1"
         sodipodi:nodetypes="ccccccccccccccccccccccccccccccccccccccccccccccccccccccccsccccccccccccccccsaaccccccccccc" />
      <path
         sodipodi:nodetypes="ccccccccccccccccccccccccccccccccccccccc"
         inkscape:connector-curvature="0"
         id="path4040"
         d="m 136.33801,944.60539 c -2.50544,-0.79607 -4.74473,-1.70086 -6.75113,-2.69066 -2.85672,-1.56935 -5.20593,-3.29745 -7.14994,-5.12192 -3.06198,-3.43422 -4.90146,-7.09385 -5.99589,-10.7534 -0.97242,-3.30094 -1.36586,-6.69363 -1.42975,-10.0199 -0.0929,-1.24704 -0.13927,-2.49979 -0.14868,-3.74767 -0.0893,-0.92752 -0.15813,-1.85917 -0.20956,-2.78952 -0.0179,-0.32382 -0.0337,-0.64787 -0.0475,-0.9719 -0.12808,-4.67551 0.14861,-9.77246 0.66825,-14.49467 -0.12644,-0.97004 -0.23972,-1.95085 -0.33807,-2.93921 -0.13814,-0.36064 -0.27396,-0.72446 -0.40744,-1.09155 -0.16963,-0.44407 -0.33577,-0.89314 -0.4984,-1.34741 -0.23884,-0.48684 -0.47326,-0.98197 -0.70349,-1.48593 -0.38733,-0.54674 -0.76877,-1.11137 -1.14557,-1.69544 0.0642,0.58699 0.13357,1.16972 0.20787,1.74801 0.11799,0.41516 0.23851,0.82676 0.36152,1.23488 0.11695,0.45011 0.23693,0.89654 0.35986,1.33932 -0.0554,0.41759 -0.10821,0.83433 -0.15866,1.2499 -0.0278,0.37862 -0.0538,0.75664 -0.0777,1.13384 -0.0792,0.38431 -0.15652,0.76814 -0.2319,1.15114 -0.10018,0.27061 -0.19945,0.54068 -0.29778,0.81006 0.0335,0.22059 0.0677,0.44081 0.10249,0.66061 -2.9e-4,0.61079 0.004,1.22121 0.0133,1.82994 -0.0404,0.78442 -0.0732,1.57001 -0.0982,2.35349 -0.0172,1.30279 -0.0129,2.61339 0.0154,3.91612 -0.005,1.11148 0.009,2.22897 0.0418,3.34286 -0.0361,1.40828 -0.0402,2.82947 -0.003,4.24612 0.0405,0.62066 0.0889,1.24227 0.14635,1.8634 0.005,2.64732 0.16785,5.35231 0.58918,8.02445 0.13648,1.23444 0.32832,2.47429 0.58772,3.71217 0.36917,1.32214 0.81923,2.6428 1.36722,3.95073 0.24324,0.65586 0.51093,1.31061 0.80538,1.963 0.91784,1.67777 2.02477,3.32977 3.3659,4.92628 1.10889,1.30635 2.37941,2.57911 3.83949,3.80042 0.88514,0.76033 1.84365,1.50357 2.88271,2.22549 1.18087,0.71746 2.4524,1.40282 3.82307,2.04976 0.85115,0.36045 1.73727,0.70467 2.66011,1.0311 0.85889,0.22851 1.74343,0.43875 2.65459,0.62958 0.39893,-0.009 0.79923,-0.0236 1.20087,-0.0435 z"
         style="fill:#4cb132;fill-opacity:1;stroke:none;stroke-width:0.278832;stroke-linecap:round;stroke-linejoin:round;stroke-miterlimit:4;stroke-dasharray:none;stroke-opacity:1" />
    </g>
  </g>
</svg>
